<svg xmlns="http://www.w3.org/2000/svg" width="256" height="256" xmlns:xlink="http://www.w3.org/1999/xlink"><rect x="0" y="0" width="256" height="256" fill="#ffffff"></rect><path d="M128,256c-44.5331,0 -83.7545,-22.7421 -106.6837,-57.246l53.3419,-35.377c11.4646,17.2519 31.0753,28.623 53.3419,28.623c22.2665,0 41.8772,-11.3711 53.3419,-28.623l53.3419,35.377c-22.9293,34.5039 -62.1506,57.246 -106.6837,57.246c0,0 0,0 0,0z" fill="#bb00fc" stroke="#000000" stroke-width="0"></path><polygon points="145.2154,128 238.7846,65.9438 238.7846,190.0562" fill="#ededed" stroke="#bdbdbd" stroke-width="0"></polygon><path d="M128,0c44.5331,0 83.7545,22.7421 106.6837,57.246l-53.3419,35.377c-11.4646,-17.2519 -31.0753,-28.623 -53.3419,-28.623c-22.2665,0 -41.8772,11.3711 -53.3419,28.623l-53.3419,-35.377c22.9293,-34.5039 62.1506,-57.246 106.6837,-57.246z" fill="#990000" stroke="#000000" stroke-width="0"></path><path d="M0,128c0,-26.8324 8.2563,-51.7365 22.3671,-72.3104l52.8165,36.1552c-7.0554,10.2869 -11.1835,22.739 -11.1835,36.1552c0,13.4162 4.1282,25.8683 11.1835,36.1552l-52.8165,36.1552c-14.1108,-20.5738 -22.3671,-45.4779 -22.3671,-72.3104z" fill="#ff6f14" stroke="#000000" stroke-width="0"></path><path d="M21.3163,198.754l53.3419,-35.377c11.4646,17.2519 31.0753,28.623 53.3419,28.623l0,64c-44.5331,0 -83.7544,-22.7421 -106.6837,-57.246zM181.3419,163.377l0,0h0c0,0 0,0 0,0z" fill="#00c3f2" stroke="#000000" stroke-width="0"></path></svg>