<svg xmlns="http://www.w3.org/2000/svg" width="256" height="256" xmlns:xlink="http://www.w3.org/1999/xlink"><rect x="0" y="0" width="256" height="256" fill="#ffffff"></rect><path d="" id="Path 1" fill="#9e9e9e" stroke="#000000"></path><path d="M128,128v128c-44.5331,0 -83.7545,-22.7421 -106.6837,-57.246l53.3419,-35.377v0z" fill="#00c3f2" stroke="#000000" stroke-width="0"></path><polygon points="128,128 238.7846,65.9438 238.7846,190.0562" fill="#ededed" stroke="#bdbdbd" stroke-width="0"></polygon><path d="M21.3163,198.754c-14.1108,-20.5738 -21.3163,-43.9215 -21.3163,-70.754c0,-26.8324 8.2563,-51.7365 22.3671,-72.3104l105.6329,72.3104" fill="#ff6f14" stroke="#000000" stroke-width="0"></path><path d="M128,256l0,-128l106.6837,70.754c-22.9293,34.5039 -62.1506,57.246 -106.6837,57.246h0" fill="#bb00fc" stroke="#000000" stroke-width="0"></path><path d="M22.3671,55.6896c0.3466,-0.5215 -0.354,0.5161 0,0v0v0c23.0653,-33.6298 61.7729,-55.6896 105.6329,-55.6896c44.5331,0 83.7545,22.7421 106.6837,57.246l-106.6837,70.754" fill="#990000" stroke="#000000" stroke-width="0"></path></svg>