<?xml version="1.0" encoding="UTF-8"?>
<svg version="1.1" xmlns="http://www.w3.org/2000/svg" width="256" height="256">
<path d="M0 0 C1.65199859 -0.00735148 3.30399207 -0.01594082 4.95597839 -0.02566528 C9.41910692 -0.04778084 13.88205026 -0.05081684 18.34522605 -0.04891777 C22.08474939 -0.04879756 25.82423421 -0.0573824 29.56374675 -0.06569529 C38.39571439 -0.08489499 47.22758753 -0.08782632 56.05957031 -0.08105469 C65.13687872 -0.07442225 74.21377992 -0.09725405 83.29100579 -0.13436842 C91.11305681 -0.16517708 98.93497762 -0.17641322 106.75708801 -0.1725316 C111.41608673 -0.17047495 116.07476868 -0.17577368 120.73370934 -0.20042419 C125.12115269 -0.22287322 129.50793988 -0.22066474 133.89538765 -0.20049667 C135.49359535 -0.19711801 137.0918488 -0.20203778 138.68999481 -0.21648026 C153.14410571 -0.33795217 165.80371591 2.28509763 177.49731445 11.41992188 C178.38418945 12.03867188 179.27106445 12.65742188 180.18481445 13.29492188 C190.20460624 22.50229811 195.78046537 35.68838087 196.77071571 49.131464 C196.87864948 53.38213976 196.89217468 57.62277064 196.86962891 61.87426758 C196.87206231 63.49700147 196.87578693 65.11973385 196.88069153 66.74246216 C196.89003135 71.11666757 196.88073245 75.49064647 196.8673594 79.86483407 C196.85596289 84.46621966 196.86015886 89.06759542 196.86210632 93.66899109 C196.86298699 101.39647068 196.85195887 109.12386217 196.83349609 116.85131836 C196.81235453 125.75017793 196.80881524 134.64890836 196.81505805 143.54778796 C196.82077993 152.14841922 196.8150715 160.74900558 196.80388451 169.34963036 C196.79927346 172.99077381 196.7983494 176.63188949 196.80047035 180.27303505 C196.80237299 184.57333816 196.79409985 188.87351243 196.77840996 193.17378616 C196.77421606 194.73973367 196.77328292 196.30569438 196.77610016 197.87164497 C196.80458606 216.55902044 195.97769352 233.80801637 182.1105957 247.83398438 C175.98185509 253.41992188 175.98185509 253.41992188 173.49731445 253.41992188 C173.49731445 254.07992187 173.49731445 254.73992187 173.49731445 255.41992188 C170.35743005 256.98986407 166.99692461 256.58655253 163.54823303 256.60073853 C162.30161924 256.6115453 162.30161924 256.6115453 161.02982134 256.6225704 C158.22871625 256.64539641 155.42762008 256.66089576 152.62646484 256.67626953 C150.62433655 256.69071329 148.6222105 256.70547086 146.62008667 256.72052002 C128.31936849 256.85094635 110.01803431 256.91668996 91.71694279 256.96836281 C78.1894244 257.00725264 64.66273998 257.07556095 51.13558775 257.18291056 C41.62463971 257.25583864 32.11391929 257.29420998 22.60270303 257.30738866 C16.92281585 257.31624422 11.24395893 257.34041928 5.56437874 257.40205765 C0.21488999 257.459451 -5.13304122 257.47393496 -10.4827919 257.45618439 C-12.44072626 257.45706029 -14.39872603 257.47322352 -16.35638237 257.5062294 C-32.95471374 257.77142838 -32.95471374 257.77142838 -40.00880432 252.10116577 C-41.55203958 250.58551273 -43.05518876 249.02725889 -44.50268555 247.41992188 C-45.21130202 246.71412806 -45.9199185 246.00833424 -46.6500082 245.28115273 C-51.291129 240.61785656 -53.34577596 235.53952582 -55.50268555 229.41992188 C-56.05513327 228.18620454 -56.61659315 226.95645158 -57.19018555 225.73242188 C-59.4551188 220.01616176 -59.62840385 214.30104247 -59.64312744 208.20503235 C-59.64609856 207.51331426 -59.64906969 206.82159618 -59.65213084 206.10891694 C-59.66074764 203.80933376 -59.66232009 201.50980307 -59.66381836 199.21020508 C-59.66845152 197.55378612 -59.67347685 195.89736822 -59.67886353 194.24095154 C-59.69194169 189.75310053 -59.69842352 185.26526446 -59.70287418 180.77739739 C-59.70581237 177.96896367 -59.70991857 175.16053397 -59.71437836 172.35210228 C-59.72804131 163.55176892 -59.7377138 154.75144482 -59.74158025 145.9511016 C-59.74605797 135.81725224 -59.76359767 125.68353795 -59.79258084 115.54972965 C-59.81424721 107.69978161 -59.82428717 99.84987144 -59.82562137 91.99989384 C-59.82666586 87.31922048 -59.83249757 82.6386743 -59.85044098 77.95803261 C-59.86700757 73.55108985 -59.86903582 69.14436872 -59.86030197 64.73740578 C-59.85953617 63.1282644 -59.8638134 61.51911067 -59.87376022 59.90999985 C-59.94151149 48.25796861 -59.04853001 37.43391867 -53.50268555 26.91992188 C-53.00768555 25.96085937 -52.51268555 25.00179688 -52.00268555 24.01367188 C-50.63322714 21.64565005 -49.29593039 19.48605181 -47.50268555 17.41992188 C-46.84268555 17.41992188 -46.18268555 17.41992188 -45.50268555 17.41992188 C-45.15270508 16.54013672 -45.15270508 16.54013672 -44.7956543 15.64257812 C-41.25453792 9.5552814 -32.89901734 5.70432609 -26.50268555 3.41992188 C-25.85947452 3.16794792 -25.21626348 2.91597397 -24.55356121 2.65636444 C-16.49354018 -0.18246735 -8.43017476 -0.01781978 0 0 Z M-4.50268555 47.41992188 C-5.53793687 49.53333313 -5.53793687 49.53333313 -5.50268555 51.41992188 C-6.16268555 51.41992188 -6.82268555 51.41992188 -7.50268555 51.41992188 C-8.68276398 55.64433911 -8.66549361 59.75869208 -8.6796875 64.11645508 C-8.6862587 64.99337006 -8.6928299 65.87028503 -8.69960022 66.77377319 C-8.71929412 69.67275075 -8.73098636 72.57167663 -8.7409668 75.47070312 C-8.74504232 76.46226095 -8.74911785 77.45381878 -8.75331688 78.47542381 C-8.77415972 83.72246466 -8.78846987 88.96947947 -8.79785156 94.21655273 C-8.80891966 99.63037738 -8.84332947 105.04379143 -8.88302326 110.45747089 C-8.90918728 114.62597917 -8.91754316 118.79438948 -8.92113304 122.96297264 C-8.92599856 124.95842452 -8.93761153 126.95387204 -8.95617104 128.94924355 C-8.98056054 131.74489413 -8.97959793 134.53948031 -8.97265625 137.33520508 C-8.98546631 138.15467117 -8.99827637 138.97413727 -9.01147461 139.81843567 C-8.9626797 145.22600145 -8.10714741 149.26155548 -4.50268555 153.41992188 C1.39494688 158.90421382 7.39585743 159.13161095 15.14233398 159.03515625 C16.85601166 159.04347977 16.85601166 159.04347977 18.60430908 159.05197144 C22.3633478 159.06373825 26.12117338 159.0395232 29.88012695 159.01367188 C32.49990789 159.01196016 35.11969054 159.01202707 37.73947144 159.01379395 C43.22188926 159.0137405 48.70396094 158.99405839 54.1862793 158.96191406 C60.51438117 158.92498984 66.84203066 158.91624487 73.17022622 158.92321157 C79.27424739 158.92952672 85.37808943 158.91853107 91.48208237 158.89924622 C94.07282634 158.89221823 96.66358394 158.88909144 99.25433731 158.88993835 C102.87350361 158.88814016 106.49202861 158.8667561 110.11108398 158.83984375 C111.71495468 158.84423965 111.71495468 158.84423965 113.35122681 158.84872437 C119.58154916 158.77726524 124.33171185 158.30731237 129.1418457 153.91992188 C133.08681206 148.85347679 133.62174558 145.71440798 133.61083984 139.37817383 C133.61105888 138.30950073 133.61105888 138.30950073 133.61128235 137.21923828 C133.61058596 134.86552887 133.60280638 132.5118987 133.5949707 130.15820312 C133.59310555 128.52581322 133.59168211 126.89342276 133.59068298 125.2610321 C133.58686547 120.96530613 133.57704169 116.66961398 133.565979 112.37390137 C133.55574845 107.99015765 133.55118183 103.60640847 133.54614258 99.22265625 C133.53541876 90.62172927 133.5183515 82.02082978 133.49731445 73.41992188 C132.40459229 73.91935303 131.31187012 74.41878418 130.18603516 74.93334961 C126.20308551 76.53849756 124.74118522 76.53197235 120.68481445 75.48242188 C117.94961206 74.74153934 117.94961206 74.74153934 115.49731445 74.41992188 C113.22058092 76.26408683 113.22058092 76.26408683 113.28613281 79.07666016 C113.30297119 80.20313965 113.31980957 81.32961914 113.3371582 82.49023438 C113.34900146 83.76495605 113.36084473 85.03967773 113.37304688 86.35302734 C113.38338959 87.03604919 113.3937323 87.71907104 113.40438843 88.42279053 C113.45612197 92.0310626 113.46797245 95.63946122 113.48168945 99.24804688 C113.48500778 99.99589447 113.48832611 100.74374207 113.491745 101.51425171 C113.51655431 109.06805908 113.42737626 116.61701143 113.23587036 124.168396 C113.20187121 125.58449216 113.1734363 127.000733 113.15060425 128.41705322 C113.11773895 130.39486188 113.06389629 132.37228865 113.0090332 134.34960938 C112.98284912 135.47608887 112.95666504 136.60256836 112.9296875 137.76318359 C112.78700439 138.63990723 112.64432129 139.51663086 112.49731445 140.41992188 C108.88634492 142.8272349 107.22165776 142.66524961 102.9309082 142.65039062 C101.64120117 142.64845703 100.35149414 142.64652344 99.02270508 142.64453125 C98.35215088 142.63832764 97.68159668 142.63212402 96.99072266 142.62573242 C94.93875742 142.60745699 92.88724327 142.60522297 90.83520508 142.60546875 C80.7778467 142.560188 80.7778467 142.560188 78.49731445 141.41992188 C77.33328718 137.92784007 77.28612938 135.02844415 77.1809082 131.34570312 C77.14973656 130.3199543 77.14973656 130.3199543 77.11793518 129.27348328 C77.05265291 127.09322978 76.99365428 124.91285782 76.93481445 122.73242188 C76.89160892 121.25259201 76.84799398 119.77277405 76.80395508 118.29296875 C76.69699363 114.66874566 76.59566622 111.04438998 76.49731445 107.41992188 C75.01231445 107.91492188 75.01231445 107.91492188 73.49731445 108.41992188 C72.68529137 111.9496959 72.39819856 115.14609851 72.4699707 118.76367188 C72.4822168 119.76269531 72.49446289 120.76171875 72.50708008 121.79101562 C72.5422375 123.8770226 72.58130041 125.9629674 72.62426758 128.04882812 C72.63522461 129.04785156 72.64618164 130.046875 72.6574707 131.07617188 C72.67430908 131.98173828 72.69114746 132.88730469 72.70849609 133.8203125 C72.47084933 136.74570299 71.86801976 138.8257278 70.49731445 141.41992188 C66.07430246 142.89425921 61.75513117 142.60429159 57.12231445 142.60742188 C56.17614258 142.61966797 55.2299707 142.63191406 54.25512695 142.64453125 C52.8784082 142.64743164 52.8784082 142.64743164 51.47387695 142.65039062 C50.63937012 142.65449951 49.80486328 142.6586084 48.94506836 142.6628418 C46.17406865 142.38784232 44.02595992 141.55846099 41.49731445 140.41992188 C40.60596261 123.82375067 40.31097934 107.26130235 40.31201172 90.64208984 C40.31015125 87.27877969 40.2981805 83.91581654 40.28123951 80.55257034 C40.26751534 77.30523664 40.26803537 74.05790568 40.2668457 70.81054688 C40.25966019 69.60763 40.25247467 68.40471313 40.24507141 67.16534424 C40.24814804 66.05858337 40.25122467 64.95182251 40.25439453 63.81152344 C40.25296951 62.83942932 40.25154449 61.86733521 40.25007629 60.86578369 C40.49731445 58.41992188 40.49731445 58.41992188 42.49731445 55.41992188 C45.29467773 55.0793457 45.29467773 55.0793457 48.81762695 55.12695312 C50.07446289 55.13662109 51.33129883 55.14628906 52.6262207 55.15625 C54.60428711 55.19395508 54.60428711 55.19395508 56.62231445 55.23242188 C57.96214349 55.24746705 59.30198849 55.26115575 60.6418457 55.2734375 C63.92740287 55.30889315 67.21216027 55.35831339 70.49731445 55.41992188 C71.764666 59.49640303 72.75396876 63.07865679 72.62231445 67.35742188 C72.60426758 68.12957031 72.5862207 68.90171875 72.56762695 69.69726562 C72.54442383 70.26574219 72.5212207 70.83421875 72.49731445 71.41992188 C73.81731445 70.75992188 75.13731445 70.09992188 76.49731445 69.41992188 C76.48571289 68.74445313 76.47411133 68.06898437 76.4621582 67.37304688 C76.45313477 66.48101562 76.44411133 65.58898437 76.43481445 64.66992188 C76.42321289 63.78820312 76.41161133 62.90648438 76.3996582 61.99804688 C76.48905248 59.63803808 76.82818624 57.67493663 77.49731445 55.41992188 C78.48473633 55.35933594 79.4721582 55.29875 80.48950195 55.23632812 C81.77083008 55.15253906 83.0521582 55.06875 84.37231445 54.98242188 C85.64848633 54.90121094 86.9246582 54.82 88.23950195 54.73632812 C91.38031598 54.6278616 91.38031598 54.6278616 93.49731445 53.41992188 C92.71021384 50.00915254 91.61455404 46.73530763 90.49731445 43.41992188 C79.14450485 43.32714584 67.7917858 43.25611812 56.43867397 43.21267319 C51.16666183 43.19181929 45.8949095 43.16354155 40.62304688 43.11816406 C35.5331626 43.07462828 30.44352789 43.05076824 25.35347176 43.0404129 C23.41382991 43.03303544 21.47420136 43.01862889 19.53466606 42.99700165 C16.81285207 42.96786488 14.09206263 42.96397016 11.37011719 42.96582031 C10.57241913 42.95143921 9.77472107 42.93705811 8.95285034 42.92224121 C3.37129594 42.9631589 0.08286718 44.19566617 -4.50268555 47.41992188 Z M99.49731445 55.41992188 C99.16731445 56.40992188 98.83731445 57.39992187 98.49731445 58.41992188 C96.43481445 59.60742188 96.43481445 59.60742188 94.49731445 60.41992188 C94.49731445 61.07992187 94.49731445 61.73992188 94.49731445 62.41992188 C93.94043945 62.64679687 93.38356445 62.87367187 92.80981445 63.10742188 C89.83571858 64.79542224 87.7772258 66.88668704 85.49731445 69.41992188 C85.49731445 70.07992187 85.49731445 70.73992187 85.49731445 71.41992188 C83.51731445 72.40992188 83.51731445 72.40992188 81.49731445 73.41992188 C81.49731445 74.07992187 81.49731445 74.73992187 81.49731445 75.41992188 C80.83731445 75.41992188 80.17731445 75.41992188 79.49731445 75.41992188 C79.49731445 76.07992187 79.49731445 76.73992187 79.49731445 77.41992188 C78.83731445 77.41992188 78.17731445 77.41992188 77.49731445 77.41992188 C75.75649073 79.10232915 75.75649073 79.10232915 73.99731445 81.23242188 C73.38887695 81.94011719 72.78043945 82.6478125 72.15356445 83.37695312 C69.53898785 86.6020087 68.52574102 88.12144295 68.12231445 92.35742188 C67.73591752 96.34532983 66.48417587 97.72211156 63.49731445 100.41992188 C63.49731445 101.73992187 63.49731445 103.05992188 63.49731445 104.41992188 C66.26378448 104.03568993 68.09476747 103.73918328 70.30981445 101.98242188 C72.49731445 100.41992188 72.49731445 100.41992188 76.24731445 99.66992188 C85.98221068 97.41836612 93.63868234 86.39758703 100.49731445 79.48242188 C101.56869333 78.40601534 102.64030628 77.32984173 103.7121582 76.25390625 C106.30991083 73.64525443 108.90449407 71.03347716 111.49731445 68.41992188 C110.00652672 65.29381469 108.46628496 63.1179689 105.99731445 60.66992188 C105.38887695 60.05632813 104.78043945 59.44273438 104.15356445 58.81054688 C102.60247168 57.205581 102.60247168 57.205581 100.49731445 57.41992188 C100.00231445 56.42992187 100.00231445 56.42992187 99.49731445 55.41992188 Z " fill="#B6313D" transform="translate(59.502685546875,-0.419921875)"/>
<path d="M0 0 C1.24007812 -0.00386719 2.48015625 -0.00773437 3.7578125 -0.01171875 C5.70300781 0.00568359 5.70300781 0.00568359 7.6875 0.0234375 C8.98429687 0.01183594 10.28109375 0.00023437 11.6171875 -0.01171875 C12.85726562 -0.00785156 14.09734375 -0.00398438 15.375 0 C16.51324219 0.00338379 17.65148437 0.00676758 18.82421875 0.01025391 C21.6875 0.3984375 21.6875 0.3984375 23.34120178 1.43492126 C25.42656015 4.47632395 25.11293543 7.64187312 25.09155273 11.20288086 C25.09841599 11.99668655 25.10527924 12.79049225 25.11235046 13.60835266 C25.13066778 16.23517694 25.12677396 18.86140674 25.12109375 21.48828125 C25.12565333 23.31287328 25.13095823 25.13746359 25.13697815 26.96205139 C25.14591904 30.78784152 25.14347521 34.61342301 25.13354492 38.43920898 C25.12205639 43.34338803 25.1422598 48.24684694 25.17146206 53.15093136 C25.1898039 56.91960734 25.1895356 60.68811013 25.18382454 64.45681953 C25.18367106 66.26493909 25.18973703 68.0730702 25.20211601 69.88114738 C25.21698575 72.40942483 25.20637934 74.93636419 25.18920898 77.46459961 C25.19887695 78.21226593 25.20854492 78.95993225 25.21850586 79.73025513 C25.16915392 83.19861229 24.93910184 85.06794483 22.81053162 87.86393738 C20.17477468 89.76902881 18.70789723 89.88873507 15.4765625 89.859375 C14.47882813 89.85550781 13.48109375 89.85164063 12.453125 89.84765625 C11.41671875 89.82316406 10.3803125 89.79867187 9.3125 89.7734375 C7.76949219 89.77150391 7.76949219 89.77150391 6.1953125 89.76953125 C1.05575025 89.70992292 -3.57622056 89.63193382 -8.3125 87.3984375 C-9.85314209 84.31715331 -9.46862454 81.07358617 -9.47363281 77.69165039 C-9.47859772 76.89638443 -9.48356262 76.10111847 -9.48867798 75.28175354 C-9.50331117 72.64485822 -9.51010297 70.00802304 -9.515625 67.37109375 C-9.52137483 65.54267881 -9.52713258 63.71426389 -9.53289795 61.885849 C-9.54341077 58.04995441 -9.54925182 54.2140808 -9.55273438 50.37817383 C-9.55822437 45.45720315 -9.58226194 40.53650844 -9.61070633 35.61562443 C-9.62930594 31.83844688 -9.63453684 28.06133622 -9.63607025 24.28411674 C-9.6391026 22.4695834 -9.64715065 20.65505138 -9.66025543 18.84056282 C-9.67726275 16.30503285 -9.6754491 13.7701826 -9.66894531 11.23461914 C-9.6781601 10.4817865 -9.68737488 9.72895386 -9.6968689 8.95330811 C-9.65616318 3.90127268 -9.65616318 3.90127268 -7.96917725 1.43293762 C-5.36098798 -0.1957273 -3.04306781 0.00904649 0 0 Z " fill="#FE902E" transform="translate(71.3125,53.6015625)"/>
<path d="M0 0 C1.14460693 0.00821777 2.28921387 0.01643555 3.46850586 0.02490234 C4.7130957 0.02876953 5.95768555 0.03263672 7.23999023 0.03662109 C8.54129883 0.06111328 9.84260742 0.08560547 11.18334961 0.11083984 C13.14111328 0.11277344 13.14111328 0.11277344 15.13842773 0.11474609 C24.84028642 0.20527666 24.84028642 0.20527666 27.12084961 2.48583984 C28.22870704 8.29486621 28.86493401 14.81756556 27.12084961 20.48583984 C25.47181056 22.46964622 23.73528658 24.1894327 21.81225586 25.90771484 C18.89580416 28.62883837 17.89151601 30.98363733 17.24584961 34.79833984 C16.37957492 39.11574113 14.56329294 41.82217485 12.12084961 45.48583984 C11.50134538 49.28030326 11.84163296 50.95067459 13.62084961 54.36083984 C16.30425361 56.64173324 16.84791686 56.81169903 20.18334961 56.86083984 C24.02013129 56.64433457 24.02013129 56.64433457 27.12084961 55.48583984 C28.60576048 60.55823614 28.30510312 65.68025653 28.30834961 70.92333984 C28.3205957 71.96039063 28.3328418 72.99744141 28.34545898 74.06591797 C28.34739258 75.06945312 28.34932617 76.07298828 28.35131836 77.10693359 C28.35542725 78.01886475 28.35953613 78.9307959 28.36376953 79.87036133 C28.08997065 82.81830853 27.52857168 84.87817447 26.12084961 87.48583984 C23.24500579 89.52852404 20.78377779 89.74199552 17.31225586 89.75146484 C15.94423828 89.75533203 15.94423828 89.75533203 14.54858398 89.75927734 C13.60305664 89.75154297 12.6575293 89.74380859 11.68334961 89.73583984 C10.74168945 89.74357422 9.8000293 89.75130859 8.82983398 89.75927734 C-1.63525442 89.72973581 -1.63525442 89.72973581 -4.87915039 86.48583984 C-5.03497561 85.14093215 -5.12461098 83.78826828 -5.18676758 82.43579102 C-5.22747375 81.55997879 -5.26817993 80.68416656 -5.31011963 79.78181458 C-5.34836853 78.8114476 -5.38661743 77.84108063 -5.42602539 76.84130859 C-5.46765808 75.82409225 -5.50929077 74.80687592 -5.55218506 73.75883484 C-6.01316847 61.43006772 -6.10096434 49.09925165 -6.11938477 36.76293945 C-6.12764725 33.40857535 -6.14935412 30.05483877 -6.17735672 26.7006197 C-6.20037115 23.4584832 -6.20241433 20.21632785 -6.20727539 16.97412109 C-6.21962219 15.77636551 -6.23196899 14.57860992 -6.24468994 13.34455872 C-6.24168884 12.23787338 -6.23868774 11.13118805 -6.2355957 9.9909668 C-6.24106415 8.53615654 -6.24106415 8.53615654 -6.24664307 7.05195618 C-5.64114277 2.82388771 -4.25907842 0.71869465 0 0 Z " fill="#FACB43" transform="translate(104.879150390625,53.51416015625)"/>
<path d="M0 0 C0.7043601 15.89521929 1.22279661 31.78441692 0.8588562 47.69555664 C0.82801552 49.10395467 0.80383796 50.51251476 0.78640747 51.92114258 C0.75925133 53.89181919 0.70256813 55.86202225 0.64453125 57.83203125 C0.60356323 59.51389526 0.60356323 59.51389526 0.56176758 61.22973633 C0 64 0 64 -1.62597656 65.86279297 C-4.75779761 67.36300095 -7.15936706 67.37208417 -10.62890625 67.36328125 C-11.91087891 67.36263672 -13.19285156 67.36199219 -14.51367188 67.36132812 C-15.5103186 67.34888062 -15.5103186 67.34888062 -16.52709961 67.33618164 C-18.55948389 67.31253509 -20.59055944 67.31563234 -22.62304688 67.32226562 C-32.59944533 67.26703644 -32.59944533 67.26703644 -36 65 C-37.17942085 61.46173745 -37.11289189 58.65851274 -37.09765625 54.92578125 C-37.0962413 54.2419487 -37.09482635 53.55811615 -37.09336853 52.8535614 C-37.08777876 50.67316278 -37.07522822 48.49286749 -37.0625 46.3125 C-37.05748367 44.83268378 -37.052921 43.35286594 -37.04882812 41.87304688 C-37.03781271 38.24866443 -37.02055512 34.6243423 -37 31 C-37.66 30.67 -38.32 30.34 -39 30 C-38.33613281 29.84144531 -37.67226562 29.68289062 -36.98828125 29.51953125 C-31.24055351 28.00078859 -27.9246566 26.64761966 -24 22 C-22.74084173 20.6969495 -21.46879234 19.40629234 -20.1875 18.125 C-19.50171875 17.43792969 -18.8159375 16.75085938 -18.109375 16.04296875 C-15.48281101 13.49909289 -12.73557299 11.1220132 -9.9609375 8.7421875 C-7.2976351 6.37598657 -4.82043679 3.84806091 -2.34765625 1.28515625 C-1 0 -1 0 0 0 Z " fill="#307E7E" transform="translate(173,76)"/>
<path d="M0 0 C3.58990767 2.29143043 6.45068244 4.66997803 7.46875 8.98828125 C7.53735663 14.09089913 6.20249359 17.04066375 2.80859375 20.76953125 C-0.66290999 24.32127765 -4.28589181 27.70380935 -8 31 C-7.34 31.99 -6.68 32.98 -6 34 C-5.64886868 37.30063438 -5.69756926 39.36153511 -7.125 42.375 C-9 44 -9 44 -12 44.375 C-15 44 -15 44 -18 42 C-18 41.34 -18 40.68 -18 40 C-18.66 40 -19.32 40 -20 40 C-20 39.34 -20 38.68 -20 38 C-20.59401611 37.72760498 -21.18803223 37.45520996 -21.80004883 37.17456055 C-25.30641911 35.30249891 -27.86941347 32.58065366 -30.6875 29.8125 C-31.28111328 29.26013672 -31.87472656 28.70777344 -32.48632812 28.13867188 C-35.5256161 25.15483271 -36.88007641 23.4400238 -38.02734375 19.23046875 C-38 16 -38 16 -35.875 13.5 C-33 12 -33 12 -30.375 12.125 C-28 13 -28 13 -25 15 C-24.731875 14.401875 -24.46375 13.80375 -24.1875 13.1875 C-23.00082594 11.00152146 -21.90400887 9.58667406 -20 8 C-19.34 8 -18.68 8 -18 8 C-17.67 7.01 -17.34 6.02 -17 5 C-16.34 5 -15.68 5 -15 5 C-15 4.34 -15 3.68 -15 3 C-10.08453163 -1.41131777 -6.12166499 -1.78454441 0 0 Z " fill="#FCF9F6" transform="translate(196,25)"/>
<path d="M0 0 C3.77971879 1.28367808 5.6324865 2.61314368 8.375 5.5 C11.12997802 11.43379882 10.89347491 17.26993777 8.875 23.4375 C6.45322969 26.74725276 4.75198219 28.25800827 1 30 C-3.93240563 30.64461689 -8.34791241 30.65395134 -13 28.8125 C-17.59389337 24.64928413 -18.63174351 20.5305908 -19.0625 14.5 C-18.96383715 10.55348612 -18.04135794 8.40226323 -16 5 C-10.73942634 0.12434636 -6.98909637 -0.63644385 0 0 Z " fill="#FCF7F3" transform="translate(184,185)"/>
<path d="M0 0 C2.31 0 4.62 0 7 0 C9.97 5.61 12.94 11.22 16 17 C18.97 11.39 21.94 5.78 25 0 C27.31 0 29.62 0 32 0 C32 9.9 32 19.8 32 30 C30.02 30 28.04 30 26 30 C25.67 24.39 25.34 18.78 25 13 C22.69 17.29 20.38 21.58 18 26 C16.35 26 14.7 26 13 26 C11.02 22.04 9.04 18.08 7 14 C6.67 19.28 6.34 24.56 6 30 C4.02 30 2.04 30 0 30 C0 20.1 0 10.2 0 0 Z " fill="#FAF2EF" transform="translate(102,185)"/>
<path d="M0 0 C15 0 15 0 20 3 C22.45970225 6.68955337 22.57750613 9.71611123 22 14 C20.625 16.5 20.625 16.5 19 18 C18.34 18 17.68 18 17 18 C18.98 21.96 20.96 25.92 23 30 C19.8125 30.5 19.8125 30.5 16 30 C13.44648935 27.23158994 11 23.86112137 11 20 C9.35 20 7.7 20 6 20 C6 23.3 6 26.6 6 30 C4.02 30 2.04 30 0 30 C0 20.1 0 10.2 0 0 Z " fill="#FBF5F2" transform="translate(62,185)"/>
<path d="M0 0 C1.98 0 3.96 0 6 0 C8.1953125 2.1953125 8.1953125 2.1953125 10.125 5.125 C10.76695312 6.07632813 11.40890625 7.02765625 12.0703125 8.0078125 C13.02550781 9.48894531 13.02550781 9.48894531 14 11 C15.98 13.97 15.98 13.97 18 17 C18.33 11.39 18.66 5.78 19 0 C20.98 0 22.96 0 25 0 C25 9.9 25 19.8 25 30 C19 30 19 30 16.8046875 27.83984375 C16.16789062 26.88207031 15.53109375 25.92429688 14.875 24.9375 C14.23304688 23.99777344 13.59109375 23.05804688 12.9296875 22.08984375 C10.86324501 18.78102591 8.93547991 15.38708984 7 12 C6.67 17.94 6.34 23.88 6 30 C4.02 30 2.04 30 0 30 C0 20.1 0 10.2 0 0 Z " fill="#FBF6F3" transform="translate(199,185)"/>
<path d="M0 0 C2.96912882 1.38980498 4.69657028 2.69657028 7 5 C7 5.99 7 6.98 7 8 C5.02 8.33 3.04 8.66 1 9 C0.34 8.01 -0.32 7.02 -1 6 C-4.08365871 5.7497843 -4.08365871 5.7497843 -7 6 C-7.33 7.32 -7.66 8.64 -8 10 C-6.77023438 10.34611328 -6.77023438 10.34611328 -5.515625 10.69921875 C3.18964547 13.3337085 3.18964547 13.3337085 6.8125 16.3125 C8.46370746 20.04944319 8.19967662 22.1186933 7 26 C4.73821726 28.94031756 3.07144428 29.85842778 -0.6015625 30.34375 C-5.68773854 30.50826243 -10.09977302 30.64859944 -14 27 C-15.3125 24.3125 -15.3125 24.3125 -16 22 C-14.02 21.67 -12.04 21.34 -10 21 C-9.34 21.99 -8.68 22.98 -8 24 C-6.02252878 24.36297936 -6.02252878 24.36297936 -3.875 24.1875 C-2.59625 24.125625 -1.3175 24.06375 0 24 C0 22.68 0 21.36 0 20 C-0.74765625 19.75765625 -1.4953125 19.5153125 -2.265625 19.265625 C-3.74289063 18.76289063 -3.74289063 18.76289063 -5.25 18.25 C-6.22453125 17.92515625 -7.1990625 17.6003125 -8.203125 17.265625 C-11.22430723 15.89849784 -12.90798447 14.55636477 -15 12 C-15.66974422 8.06525272 -15.35110528 6.52665792 -13.125 3.1875 C-9.24170629 -0.81000823 -5.32847764 -0.53469153 0 0 Z " fill="#FBF5F2" transform="translate(154,185)"/>
<path d="M0 0 C4.06662662 1.55271198 5.57519602 2.36279402 8 6 C7.625 8.1875 7.625 8.1875 7 10 C4.6875 10.25 4.6875 10.25 2 10 C0.1875 8 0.1875 8 -1 6 C-6.02787208 6.21682472 -6.02787208 6.21682472 -10 9 C-11.37031578 13.11094735 -11.23079618 16.84022052 -10 21 C-7.97120245 23.59686086 -7.3732552 23.9533431 -4 24.375 C-1.00548161 24.31245192 -1.00548161 24.31245192 0.5 22.5 C2 21 2 21 5.1875 20.8125 C6.5796875 20.9053125 6.5796875 20.9053125 8 21 C7.5047783 24.66464055 6.9791794 26.70832354 4 29 C-1.60004123 30.86668041 -7.05177851 30.88555522 -12.4375 28.4375 C-16.45626867 24.61476883 -17.78937326 20.96584959 -18.375 15.5 C-17.77271771 9.87869865 -16.1422122 6.27818985 -12.375 2.0625 C-8.03943714 -0.58701063 -4.95422123 -0.82422643 0 0 Z " fill="#FAF4F1" transform="translate(49,185)"/>
<path d="M0 0 C0.33 0 0.66 0 1 0 C2.05646896 10.06160913 2.05646896 10.06160913 -0.34765625 14.47265625 C-5.49830187 20.52890989 -10.38068372 22.99794399 -18.31228638 23.81030273 C-23.48474026 24.17537152 -28.65736107 24.09988572 -33.83984375 24.0625 C-35.04314835 24.05871338 -36.24645294 24.05492676 -37.48622131 24.05102539 C-41.30335178 24.03887401 -45.12040432 24.02022813 -48.9375 24 C-53.988279 23.97349169 -59.03902177 23.95348314 -64.08984375 23.9375 C-65.25434555 23.92920166 -66.41884735 23.92090332 -67.61863708 23.91235352 C-68.69057816 23.90905029 -69.76251923 23.90574707 -70.86694336 23.90234375 C-72.2851664 23.89448853 -72.2851664 23.89448853 -73.73204041 23.88647461 C-76.03370123 23.84937613 -76.03370123 23.84937613 -78 25 C-80.69829074 25.09791023 -83.36484461 25.1390625 -86.0625 25.125 C-86.80822266 25.12886719 -87.55394531 25.13273437 -88.32226562 25.13671875 C-93.87336499 25.12663501 -93.87336499 25.12663501 -95 24 C-96.67552287 23.92472943 -98.3541642 23.916866 -100.03125 23.9375 C-101.07023437 23.94523437 -102.10921875 23.95296875 -103.1796875 23.9609375 C-105.36198352 23.98661157 -107.54427538 24.01264256 -109.7265625 24.0390625 C-115.90795199 24.08462557 -121.88960496 23.99356017 -128 23 C-128.66 22.34 -129.32 21.68 -130 21 C-129.39739035 20.99761165 -128.79478069 20.99522329 -128.17391014 20.99276257 C-113.50083171 20.93358756 -98.82790074 20.85802147 -84.1550045 20.76428509 C-77.05924338 20.71934843 -69.96353222 20.67992893 -62.86767578 20.65356445 C-56.02057387 20.62810864 -49.17370358 20.58718958 -42.32674026 20.53681374 C-39.71368804 20.5201209 -37.10059734 20.50862172 -34.48749924 20.50238609 C-30.82915655 20.49277166 -27.17138585 20.46474256 -23.51318359 20.43237305 C-22.4313681 20.43380814 -21.34955261 20.43524323 -20.23495483 20.4367218 C-13.51299 20.35253495 -8.99683102 19.58060449 -3.75 15.0625 C-1.06065571 10.35614749 -0.64585105 5.32827115 0 0 Z " fill="#8C1825" transform="translate(193,137)"/>
<path d="M0 0 C0.33 0 0.66 0 1 0 C1.36862578 19.02518588 1.66202542 36.6506231 -11 52 C-13.83980234 54.8723369 -16.73281143 57.61781363 -20 60 C-20.66 60 -21.32 60 -22 60 C-22 60.66 -22 61.32 -22 62 C-24.76617563 63.38308781 -27.01018 63.11210196 -30.1015625 63.09765625 C-31.91914063 63.09282227 -31.91914063 63.09282227 -33.7734375 63.08789062 C-35.04445312 63.07951172 -36.31546875 63.07113281 -37.625 63.0625 C-38.90375 63.05798828 -40.1825 63.05347656 -41.5 63.04882812 C-44.66671292 63.03701203 -47.83333356 63.02053815 -51 63 C-51 62.67 -51 62.34 -51 62 C-49.51113281 61.79697266 -49.51113281 61.79697266 -47.9921875 61.58984375 C-34.17188792 59.48880205 -21.4937177 54.82479564 -12 44 C-3.87203317 32.87655776 -1.14433008 21.58497057 -0.4375 8.0625 C-0.37272461 6.89364258 -0.37272461 6.89364258 -0.30664062 5.70117188 C-0.20171923 3.80092883 -0.1004755 1.90048331 0 0 Z " fill="#8D282F" transform="translate(255,193)"/>
<path d="M0 0 C0.33 0 0.66 0 1 0 C1.15855469 0.87140625 1.31710938 1.7428125 1.48046875 2.640625 C4.31075766 17.08917172 8.70901982 29.7028506 20.67578125 39.1015625 C31.41364437 46.23988734 41.36999356 48.72015935 54 50 C54 50.33 54 50.66 54 51 C26.03110455 52.66736002 26.03110455 52.66736002 19.1875 47 C16.9140625 44.49609375 16.9140625 44.49609375 15 42 C13.99066406 40.99646484 13.99066406 40.99646484 12.9609375 39.97265625 C8.27272423 35.25550339 6.18200764 30.19081236 4 24 C3.44755228 22.76628267 2.88609239 21.5365297 2.3125 20.3125 C-0.31621189 13.6781319 -0.12720974 7.02480464 0 0 Z " fill="#8F282F" transform="translate(0,205)"/>
<path d="M0 0 C2.65325442 2.17702927 3.76406629 3.77136408 4.4140625 7.15625 C4.68287202 11.40061089 4.35664104 13.47044209 1.9375 17.0625 C-1.80030402 19.5278601 -3.6064858 19.86301172 -8 19 C-11.67081686 15.79779806 -12.7912546 14.29886024 -13.5625 9.5 C-12.9051093 5.40956896 -11.59081908 3.20042356 -9 0 C-5.77839187 -1.61080407 -3.42436421 -0.82657067 0 0 Z " fill="#B0333E" transform="translate(184,191)"/>
<path d="M0 0 C1.98 0 3.96 0 6 0 C6 9.9 6 19.8 6 30 C4.02 30 2.04 30 0 30 C0 20.1 0 10.2 0 0 Z " fill="#F8EEEC" transform="translate(90,185)"/>
<path d="M0 0 C0.33 0 0.66 0 1 0 C2.05646896 10.06160913 2.05646896 10.06160913 -0.34765625 14.47265625 C-5.49830187 20.52890989 -10.38068372 22.99794399 -18.31228638 23.81030273 C-23.48474026 24.17537152 -28.65736107 24.09988572 -33.83984375 24.0625 C-35.04314835 24.05871338 -36.24645294 24.05492676 -37.48622131 24.05102539 C-41.30335178 24.03887401 -45.12040432 24.02022813 -48.9375 24 C-53.988279 23.97349169 -59.03902177 23.95348314 -64.08984375 23.9375 C-65.25434555 23.92920166 -66.41884735 23.92090332 -67.61863708 23.91235352 C-68.69057816 23.90905029 -69.76251923 23.90574707 -70.86694336 23.90234375 C-72.2851664 23.89448853 -72.2851664 23.89448853 -73.73204041 23.88647461 C-76.03370123 23.84937613 -76.03370123 23.84937613 -78 25 C-80.71760108 25.07181821 -83.40859388 25.09299506 -86.125 25.0625 C-86.87910156 25.05798828 -87.63320312 25.05347656 -88.41015625 25.04882812 C-90.27347127 25.03703499 -92.13674555 25.01909942 -94 25 C-94 24.01 -94 23.02 -94 22 C-93.0155188 21.99635437 -92.0310376 21.99270874 -91.01672363 21.98895264 C-81.71841676 21.95193889 -72.42043911 21.89409667 -63.12238312 21.81609726 C-58.34264291 21.77666407 -53.56308579 21.74445523 -48.78320312 21.72900391 C-44.16641887 21.71380988 -39.55013809 21.67931578 -34.93357849 21.63169098 C-33.17626838 21.61690544 -31.41888639 21.60896061 -29.66151428 21.60811615 C-27.19112076 21.60573614 -24.72210706 21.57857555 -22.25195312 21.54589844 C-21.53265625 21.5509288 -20.81335938 21.55595917 -20.07226562 21.56114197 C-13.61681665 21.42986065 -8.5490761 19.1465904 -3.625 15 C-1.07852694 10.29881896 -0.63772636 5.26124251 0 0 Z " fill="#9A232E" transform="translate(193,137)"/>
<path d="M0 0 C6.0546875 -0.1953125 6.0546875 -0.1953125 8 0 C8.66 0.66 9.32 1.32 10 2 C9.75 5.0625 9.75 5.0625 9 8 C6.04335481 9.4783226 3.25770263 9.06032783 0 9 C0 6.03 0 3.06 0 0 Z " fill="#AF3540" transform="translate(68,191)"/>
<path d="M0 0 C0.33 0 0.66 0 1 0 C1.59173995 30.54035637 1.59173995 30.54035637 -2.69140625 36.2578125 C-4.625 37.9375 -4.625 37.9375 -8 40 C-6.55630442 35.42829733 -4.79753611 31.05843286 -2.90234375 26.66015625 C-0.87312017 20.67789971 -0.76478317 14.32380267 -0.4375 8.0625 C-0.37272461 6.89364258 -0.37272461 6.89364258 -0.30664062 5.70117188 C-0.20171923 3.80092883 -0.1004755 1.90048331 0 0 Z " fill="#A12630" transform="translate(255,193)"/>
<path d="M0 0 C0.33 0 0.66 0 1 0 C1.15855469 0.87140625 1.31710938 1.7428125 1.48046875 2.640625 C3.59273342 13.4236778 6.13394792 23.90920357 14 32 C13.67 32.66 13.34 33.32 13 34 C11.99406757 32.8803014 10.9954151 31.7540588 10 30.625 C9.1646875 29.68527344 9.1646875 29.68527344 8.3125 28.7265625 C7 27 7 27 7 25 C6.01 24.67 5.02 24.34 4 24 C-0.03542335 16.23957049 -0.15559966 8.59255902 0 0 Z " fill="#A42731" transform="translate(0,205)"/>
<path d="M0 0 C0.36923077 6.52307692 0.36923077 6.52307692 -1.5 8.9375 C-1.995 9.288125 -2.49 9.63875 -3 10 C-3 7.36 -3 4.72 -3 2 C-3.66 1.67 -4.32 1.34 -5 1 C-3 0 -3 0 0 0 Z " fill="#9B493E" transform="translate(156,52)"/>
<path d="M0 0 C0.66 0.33 1.32 0.66 2 1 C-1.08559304 3.26881841 -2.42209376 4.05451946 -6.3125 3.6875 C-7.199375 3.460625 -8.08625 3.23375 -9 3 C-4.5 0 -4.5 0 0 0 Z " fill="#AA2E38" transform="translate(189,73)"/>
<path d="M0 0 C0.99 0.33 1.98 0.66 3 1 C0.69 3.31 -1.62 5.62 -4 8 C-4.33 7.01 -4.66 6.02 -5 5 C-4.34 5 -3.68 5 -3 5 C-2.5359375 4.0409375 -2.5359375 4.0409375 -2.0625 3.0625 C-1 1 -1 1 0 0 Z " fill="#C43441" transform="translate(17,12)"/>
</svg>
